<svg height="750" width="720" xmlns="http://www.w3.org/2000/svg">
<rect height="750" fill="#555" width="720"></rect>
<text fill="#7f7" font-family="Courier New" font-size="12" xml:space="preserve">
<tspan x="10" y="26">6 megabytes installed</tspan>
<tspan x="10" y="42"></tspan>
<tspan x="10" y="58">node_modules</tspan>
<tspan x="10" y="74">└─┬ package-script@0.0.8 </tspan>
<tspan x="10" y="90">  ├── date-format-lite@0.5.0 </tspan>
<tspan x="10" y="106">  ├─┬ js.utils@0.2.11 </tspan>
<tspan x="10" y="122">  │ ├─┬ concat-files@0.1.1 </tspan>
<tspan x="10" y="138">  │ │ └── async@0.2.10 </tspan>
<tspan x="10" y="154">  │ ├─┬ fs.extra@1.2.1 </tspan>
<tspan x="10" y="170">  │ │ ├─┬ fs-extra@0.6.4 </tspan>
<tspan x="10" y="186">  │ │ │ ├── jsonfile@1.0.1 </tspan>
<tspan x="10" y="202">  │ │ │ ├── ncp@0.4.2 </tspan>
<tspan x="10" y="218">  │ │ │ └── rimraf@2.2.8 </tspan>
<tspan x="10" y="234">  │ │ ├── mkdirp@0.3.5 </tspan>
<tspan x="10" y="250">  │ │ └─┬ walk@2.2.1 </tspan>
<tspan x="10" y="266">  │ │   └─┬ forEachAsync@2.2.1 </tspan>
<tspan x="10" y="282">  │ │     └── sequence@2.2.1 </tspan>
<tspan x="10" y="298">  │ ├─┬ glob@3.2.11 </tspan>
<tspan x="10" y="314">  │ │ ├── inherits@2.0.3 </tspan>
<tspan x="10" y="330">  │ │ └─┬ minimatch@0.3.0 </tspan>
<tspan x="10" y="346">  │ │   ├── lru-cache@2.7.3 </tspan>
<tspan x="10" y="362">  │ │   └── sigmund@1.0.1 </tspan>
<tspan x="10" y="378">  │ ├─┬ jshint@2.3.0 </tspan>
<tspan x="10" y="394">  │ │ ├── cli@0.4.5 </tspan>
<tspan x="10" y="410">  │ │ ├── console-browserify@0.1.6 </tspan>
<tspan x="10" y="426">  │ │ ├── shelljs@0.1.4 </tspan>
<tspan x="10" y="442">  │ │ └── underscore@1.4.4 </tspan>
<tspan x="10" y="458">  │ ├── q@0.9.7 </tspan>
<tspan x="10" y="474">  │ ├── requirejs@2.1.22 </tspan>
<tspan x="10" y="490">  │ ├─┬ uglify-js@2.4.24 </tspan>
<tspan x="10" y="506">  │ │ ├─┬ source-map@0.1.34 </tspan>
<tspan x="10" y="522">  │ │ │ └── amdefine@1.0.1 </tspan>
<tspan x="10" y="538">  │ │ ├── uglify-to-browserify@1.0.2 </tspan>
<tspan x="10" y="554">  │ │ └─┬ yargs@3.5.4 </tspan>
<tspan x="10" y="570">  │ │   ├── camelcase@1.2.1 </tspan>
<tspan x="10" y="586">  │ │   ├── decamelize@1.2.0 </tspan>
<tspan x="10" y="602">  │ │   ├── window-size@0.1.0 </tspan>
<tspan x="10" y="618">  │ │   └── wordwrap@0.0.2 </tspan>
<tspan x="10" y="634">  │ └── underscore@1.5.2 </tspan>
<tspan x="10" y="650">  ├─┬ sudo@1.0.3 </tspan>
<tspan x="10" y="666">  │ ├── inpath@1.0.2 </tspan>
<tspan x="10" y="682">  │ ├── pidof@1.0.2 </tspan>
<tspan x="10" y="698">  │ └─┬ read@1.0.7 </tspan>
<tspan x="10" y="714">  │   └── mute-stream@0.0.7 </tspan>
<tspan x="10" y="730">  └── underscore@1.7.0</tspan>
</text>
</svg>
